<svg width="245" height="60" viewBox="0 0 245 60" fill="none" xmlns="http://www.w3.org/2000/svg">
<g clip-path="url(#clip0_1_108)">
<rect x="0.350556" y="0.636079" width="60.0512" height="58.7277" rx="13.6717" fill="#12171D" stroke="url(#paint0_linear_1_108)" stroke-width="0.701112"/>
<path d="M31.609 22.3799C30.6628 21.4307 31.4026 20.9394 31.923 20.4103C34.2312 18.0629 36.5336 15.7096 38.8666 13.3883C40.1864 12.0757 42.2039 12.006 43.5499 13.1586C44.2432 13.7531 44.297 14.3709 43.6531 15.0177C40.2532 18.4306 36.8621 21.8522 33.4289 25.2303C31.564 27.0646 28.5697 27.0705 26.6524 25.2434C24.725 23.4061 22.8674 21.4961 20.9923 19.6051C20.4313 19.0396 20.4691 18.4451 21.0432 17.8986C22.2976 16.7053 24.3413 16.6689 25.6713 17.887C26.7062 18.8347 27.6278 19.9074 28.6801 20.8319C29.3909 21.4569 30.2398 21.9264 31.0378 22.4497C31.1105 22.4976 31.2587 22.4264 31.609 22.3784V22.3799Z" fill="#F7F8FC"/>
<path d="M22.5724 28.0834C22.2657 28.4279 22.0041 28.8407 21.632 29.0849C21.4677 29.1925 20.9997 29.0486 20.8049 28.8698C19.5592 27.7229 18.3412 26.5456 17.1318 25.358C15.8033 24.0513 14.4733 22.7431 13.1825 21.4C11.8438 20.0061 11.7741 18.0293 12.9601 16.6629C13.5387 15.9972 14.1361 15.9347 14.7654 16.5641C18.1943 19.9814 21.6421 23.3798 25.0129 26.8537C26.8807 28.7797 26.8313 31.6737 24.9737 33.6171C23.1684 35.5067 21.2948 37.3323 19.4357 39.1696C18.738 39.8586 18.1725 39.799 17.5446 39.0388C16.4675 37.7335 16.5213 35.7872 17.7176 34.5212C18.7147 33.4659 19.7831 32.4775 20.7802 31.4237C21.6654 30.489 22.321 29.4047 22.571 28.082L22.5724 28.0834Z" fill="#F7F8FC"/>
<path d="M29.1429 37.619C30.0891 38.5682 29.3493 39.0595 28.8289 39.5886C26.5207 41.9361 24.2183 44.2893 21.8853 46.6106C20.5655 47.9232 18.548 47.993 17.202 46.8403C16.5087 46.2458 16.4549 45.6281 17.0988 44.9812C20.4986 41.5683 23.8898 38.1467 27.323 34.7686C29.1879 32.9343 32.1822 32.9285 34.0994 34.7556C36.0268 36.5928 37.8845 38.5028 39.7595 40.3938C40.3206 40.9593 40.2828 41.5538 39.7087 42.1003C38.4542 43.2937 36.4106 43.33 35.0806 42.1119C34.0457 41.1642 33.1241 40.0915 32.0717 39.1671C31.361 38.542 30.5121 38.0725 29.7141 37.5493C29.6414 37.5013 29.4932 37.5725 29.1429 37.6205V37.619Z" fill="#F7F8FC"/>
<path d="M38.1792 31.9155C38.4859 31.571 38.7476 31.1582 39.1197 30.914C39.2839 30.8065 39.752 30.9504 39.9467 31.1292C41.1924 32.276 42.4105 33.4534 43.6198 34.6409C44.9484 35.9477 46.2784 37.2558 47.5691 38.5989C48.9078 39.9929 48.979 41.9697 47.7915 43.3345C47.213 44.0003 46.6156 44.0628 45.9862 43.4334C42.5573 40.0161 39.1095 36.6177 35.7387 33.1438C33.8709 31.2178 33.9203 28.3238 35.778 26.3804C37.5833 24.4908 39.4569 22.6652 41.316 20.8279C42.0137 20.1389 42.5791 20.1985 43.207 20.9587C44.2841 22.264 44.2303 24.2103 43.034 25.4763C42.0369 26.5316 40.9686 27.52 39.9714 28.5738C39.0862 29.5085 38.4307 30.5928 38.1807 31.9155H38.1792Z" fill="#F7F8FC"/>
<path d="M96.3558 44.9586H90.5941L84.7513 33.5976H78.1376V44.9586H73.228V16.1502H85.8874C88.9711 16.1502 91.3245 16.9482 92.9475 18.5442C94.5705 20.1401 95.382 22.25 95.382 24.8739C95.382 26.8486 94.9086 28.5527 93.9619 29.9864C93.0151 31.393 91.6085 32.3938 89.7421 32.9889L96.3558 44.9586ZM89.2957 27.917C90.0531 27.1596 90.4318 26.1453 90.4318 24.8739C90.4318 23.6025 90.0531 22.5882 89.2957 21.8308C88.5383 21.0734 87.4158 20.6947 85.928 20.6947H78.1376V29.0531H85.928C87.4158 29.0531 88.5383 28.6744 89.2957 27.917Z" fill="white"/>
<path d="M118.626 35.8292H102.598C102.788 37.5063 103.396 38.8453 104.424 39.8461C105.452 40.8199 106.805 41.3068 108.482 41.3068C109.591 41.3068 110.592 41.0363 111.484 40.4953C112.377 39.9543 113.013 39.224 113.391 38.3043H118.26C117.611 40.4412 116.394 42.1724 114.609 43.4979C112.85 44.7963 110.768 45.4455 108.36 45.4455C105.222 45.4455 102.68 44.4041 100.732 42.3212C98.8114 40.2384 97.8511 37.601 97.8511 34.4091C97.8511 31.2983 98.8249 28.688 100.772 26.5781C102.72 24.4681 105.236 23.4132 108.319 23.4132C111.403 23.4132 113.892 24.4546 115.785 26.5375C117.706 28.5933 118.666 31.1901 118.666 34.3279L118.626 35.8292ZM108.319 27.349C106.805 27.349 105.547 27.7953 104.546 28.688C103.545 29.5806 102.923 30.7708 102.68 32.2586H113.878C113.662 30.7708 113.067 29.5806 112.093 28.688C111.119 27.7953 109.861 27.349 108.319 27.349Z" fill="white"/>
<path d="M129.517 39.2375L135.36 23.9001H140.351L131.749 44.9586H127.204L118.643 23.9001H123.755L129.517 39.2375Z" fill="white"/>
<path d="M151.482 45.4455C148.236 45.4455 145.599 44.377 143.57 42.2401C141.568 40.1031 140.568 37.5063 140.568 34.4496C140.568 31.393 141.568 28.7962 143.57 26.6592C145.599 24.4952 148.236 23.4132 151.482 23.4132C154.755 23.4132 157.393 24.4952 159.394 26.6592C161.423 28.7962 162.438 31.393 162.438 34.4496C162.438 37.5063 161.423 40.1031 159.394 42.2401C157.393 44.377 154.755 45.4455 151.482 45.4455ZM145.396 34.4496C145.396 36.4513 145.964 38.0744 147.1 39.3187C148.263 40.563 149.724 41.1851 151.482 41.1851C153.268 41.1851 154.728 40.563 155.864 39.3187C157.028 38.0744 157.609 36.4513 157.609 34.4496C157.609 32.4209 157.028 30.7843 155.864 29.54C154.728 28.2957 153.268 27.6736 151.482 27.6736C149.724 27.6736 148.263 28.2957 147.1 29.54C145.964 30.7843 145.396 32.4209 145.396 34.4496Z" fill="white"/>
<path d="M170.927 44.9586H166.099V14.5272H170.927V44.9586Z" fill="white"/>
<path d="M180.572 36.2755C180.572 39.5486 182.06 41.1851 185.035 41.1851C188.011 41.1851 189.498 39.5486 189.498 36.2755V23.9001H194.327V36.0321C194.327 38.9264 193.583 41.2257 192.095 42.9299C190.635 44.607 188.281 45.4455 185.035 45.4455C181.789 45.4455 179.422 44.607 177.934 42.9299C176.474 41.2257 175.743 38.9264 175.743 36.0321V23.9001H180.572V36.2755Z" fill="white"/>
<path d="M214.484 26.9027V23.9001H218.948V44.066C218.948 46.9333 218.055 49.2731 216.27 51.0855C214.512 52.9249 212.05 53.8446 208.885 53.8446C205.991 53.8446 203.719 53.1007 202.068 51.6129C200.445 50.1252 199.499 48.421 199.228 46.5005H204.057C204.652 48.6374 206.288 49.7059 208.966 49.7059C210.589 49.7059 211.847 49.2461 212.74 48.3264C213.659 47.4337 214.119 46.23 214.119 44.7152V41.4286C212.713 43.5926 210.495 44.6746 207.465 44.6746C204.544 44.6746 202.19 43.6602 200.405 41.6314C198.647 39.5756 197.767 37.0465 197.767 34.0439C197.767 31.0413 198.647 28.5257 200.405 26.4969C202.19 24.4411 204.544 23.4132 207.465 23.4132C210.684 23.4132 213.024 24.5763 214.484 26.9027ZM214.322 34.0439C214.322 32.1774 213.781 30.6491 212.699 29.4589C211.617 28.2687 210.197 27.6736 208.439 27.6736C206.708 27.6736 205.301 28.2687 204.219 29.4589C203.137 30.6491 202.596 32.1774 202.596 34.0439C202.596 35.8833 203.137 37.4116 204.219 38.6289C205.301 39.8191 206.708 40.4142 208.439 40.4142C210.197 40.4142 211.617 39.8191 212.699 38.6289C213.781 37.4116 214.322 35.8833 214.322 34.0439Z" fill="white"/>
<path d="M233.349 45.4455C230.103 45.4455 227.466 44.377 225.437 42.2401C223.435 40.1031 222.434 37.5063 222.434 34.4496C222.434 31.393 223.435 28.7962 225.437 26.6592C227.466 24.4952 230.103 23.4132 233.349 23.4132C236.622 23.4132 239.26 24.4952 241.261 26.6592C243.29 28.7962 244.304 31.393 244.304 34.4496C244.304 37.5063 243.29 40.1031 241.261 42.2401C239.26 44.377 236.622 45.4455 233.349 45.4455ZM227.263 34.4496C227.263 36.4513 227.831 38.0744 228.967 39.3187C230.13 40.563 231.591 41.1851 233.349 41.1851C235.134 41.1851 236.595 40.563 237.731 39.3187C238.894 38.0744 239.476 36.4513 239.476 34.4496C239.476 32.4209 238.894 30.7843 237.731 29.54C236.595 28.2957 235.134 27.6736 233.349 27.6736C231.591 27.6736 230.13 28.2957 228.967 29.54C227.831 30.7843 227.263 32.4209 227.263 34.4496Z" fill="white"/>
</g>
<defs>
<linearGradient id="paint0_linear_1_108" x1="6.97238" y1="1.11892" x2="42.3338" y2="59.0825" gradientUnits="userSpaceOnUse">
<stop/>
<stop offset="1" stop-color="white" stop-opacity="0.07"/>
</linearGradient>
<clipPath id="clip0_1_108">
<rect width="244.304" height="59.4288" fill="white" transform="translate(0 0.285522)"/>
</clipPath>
</defs>
<script xmlns=""/></svg>